<svg xmlns="http://www.w3.org/2000/svg" viewBox="0 0 64 64"><path d="M19 37h14v-6H19v6zm7-4c.5 0 1 .5 1 1s-.5 1-1 1-1-.5-1-1 .5-1 1-1zM3 37h14v-6H3v6zm7-4c.5 0 1 .5 1 1s-.5 1-1 1-1-.5-1-1 .5-1 1-1zM3 61h14V39H3v22zm10-13c0-.5.5-1 1-1s1 .5 1 1v4c0 .5-.5 1-1 1s-1-.5-1-1v-4zm-8 8c0-.5.5-1 1-1s1 .5 1 1v1h1c.5 0 1 .5 1 1s-.5 1-1 1H6c-.5 0-1-.5-1-1v-2zm14 5h14V39H19v22zm2-13c0-.5.5-1 1-1s1 .5 1 1v4c0 .5-.5 1-1 1s-1-.5-1-1v-4zm14 13h26V31H35v30zm23-28c.5 0 1 .5 1 1s-.5 1-1 1-1-.5-1-1 .5-1 1-1zm-4 0c.5 0 1 .5 1 1s-.5 1-1 1-1-.5-1-1 .5-1 1-1zm-4 0c.5 0 1 .5 1 1s-.5 1-1 1-1-.5-1-1 .5-1 1-1zm-12 0h8c.5 0 1 .5 1 1s-.5 1-1 1h-8c-.5 0-1-.5-1-1s.5-1 1-1zm-1 5c0-.5.5-1 1-1h20c.5 0 1 .5 1 1v20c0 .5-.5 1-1 1H38c-.5 0-1-.5-1-1V38z"/><path d="M57 39H39v18h18V39zm-4.4 9.5-4.2 4.2c-.2.2-.8.6-1.4 0-.4-.4-.4-1 0-1.4l4.2-4.2c.4-.4 1-.4 1.4 0s.4 1 0 1.4zm0-5.7-9.9 9.9c-.2.2-.9.6-1.4 0-.4-.4-.4-1 0-1.4l9.9-9.9c.4-.4 1-.4 1.4 0s.4 1 0 1.4zM50.9 6.5 51 3h-6v3.5l-10 8V17h26v-2.5l-10.1-8zm.6 4.1c-.2.3-.8.7-1.4.2L47 8.5V6c0-.5.5-1 1-1s1 .5 1 1v1.5l2.3 1.7c.4.3.5 1 .2 1.4zm5.3 4c-.2.3-.8.7-1.4.2l-2-1.5c-.4-.3-.5-1-.2-1.4s1-.5 1.4-.2l2 1.5c.4.3.5 1 .2 1.4zM3 17h14V3H3v14zm10-9c0-.5.5-1 1-1s1 .5 1 1v4c0 .5-.5 1-1 1s-1-.5-1-1V8zM5 6c0-.5.5-1 1-1h2c.5 0 1 .5 1 1s-.5 1-1 1H7v1c0 .5-.5 1-1 1s-1-.5-1-1V6zm24-3H19v6h10V3zm-5 4c-.5 0-1-.5-1-1s.5-1 1-1 1 .5 1 1-.5 1-1 1zm5 4H19v6h10v-6zm-5 3.9c-.5 0-1-.4-1-1 0-.5.5-1 1-1s1 .5 1 1c0 .6-.5 1-1 1z"/></svg>